<?xml version="1.0" standalone="no"?><!DOCTYPE svg PUBLIC "-//W3C//DTD SVG 1.1//EN" "http://www.w3.org/Graphics/SVG/1.1/DTD/svg11.dtd"><svg t="1611282398409" class="icon" viewBox="0 0 1024 1024" version="1.1" xmlns="http://www.w3.org/2000/svg" p-id="4766" xmlns:xlink="http://www.w3.org/1999/xlink" width="64" height="64"><defs><style type="text/css"></style></defs><path d="M1006.933333 721.066667c0 28.16-23.04 51.2-51.2 51.2L68.266667 771.413333c-28.16 0-51.2-23.04-51.2-51.2V192c0-28.16 23.04-51.2 51.2-51.2l887.466666 0.853333c28.16 0 51.2 23.04 51.2 51.2v528.213334z" fill="#FFFFFF" p-id="4767"></path><path d="M430.933333 664.746667H129.706667l43.52-72.533334h215.04z" fill="#EB6248" p-id="4768"></path><path d="M280.746667 420.693333m-189.44 0a189.44 189.44 0 1 0 378.88 0 189.44 189.44 0 1 0-378.88 0Z" fill="#EFCF48" p-id="4769"></path><path d="M280.746667 420.693333m-121.173334 0a121.173333 121.173333 0 1 0 242.346667 0 121.173333 121.173333 0 1 0-242.346667 0Z" fill="#EB6248" p-id="4770"></path><path d="M515.413333 772.266667c1.706667-116.053333 95.573333-209.92 212.48-209.92 116.053333 0 210.773333 93.866667 212.48 209.92h51.2c-1.706667-144.213333-118.613333-261.12-263.68-261.12-144.213333 0-261.973333 116.906667-263.68 261.12h51.2z" fill="#C7CAC7" p-id="4771"></path><path d="M726.186667 774.826667m-212.48 0a212.48 212.48 0 1 0 424.96 0 212.48 212.48 0 1 0-424.96 0Z" fill="#B3D3EF" p-id="4772"></path><path d="M826.88 750.933333L726.186667 650.24 625.493333 750.933333l38.4 37.546667 35.84-35.84v133.973333h53.76V752.64l35.84 35.84z" fill="#FFFFFF" p-id="4773"></path><path d="M608.426667 273.92h273.066666c5.12 0 8.533333-3.413333 8.533334-8.533333s-3.413333-8.533333-8.533334-8.533334h-273.066666c-5.12 0-8.533333 3.413333-8.533334 8.533334s4.266667 8.533333 8.533334 8.533333zM628.053333 378.88h-17.066666c-5.12 0-8.533333 3.413333-8.533334 8.533333s3.413333 8.533333 8.533334 8.533334h17.066666c5.12 0 8.533333-3.413333 8.533334-8.533334s-4.266667-8.533333-8.533334-8.533333zM884.053333 378.88h-17.066666c-5.12 0-8.533333 3.413333-8.533334 8.533333s3.413333 8.533333 8.533334 8.533334h17.066666c5.12 0 8.533333-3.413333 8.533334-8.533334s-4.266667-8.533333-8.533334-8.533333zM713.386667 378.88h-17.066667c-5.12 0-8.533333 3.413333-8.533333 8.533333s3.413333 8.533333 8.533333 8.533334h17.066667c5.12 0 8.533333-3.413333 8.533333-8.533334s-4.266667-8.533333-8.533333-8.533333zM798.72 378.88h-17.066667c-5.12 0-8.533333 3.413333-8.533333 8.533333s3.413333 8.533333 8.533333 8.533334h17.066667c5.12 0 8.533333-3.413333 8.533333-8.533334s-4.266667-8.533333-8.533333-8.533333zM478.72 420.693333c0-109.226667-88.746667-197.973333-197.973333-197.973333S82.773333 311.466667 82.773333 420.693333c0 68.266667 34.133333 128 87.04 163.84-1.706667 0.853333-2.56 1.706667-3.413333 3.413334l-42.666667 72.533333c-1.706667 2.56-1.706667 5.973333 0 8.533333s4.266667 4.266667 7.68 4.266667h301.226667c3.413333 0 5.973333-1.706667 7.68-4.266667s1.706667-5.973333 0-8.533333l-42.666667-72.533333c-0.853333-1.706667-2.56-2.56-3.413333-3.413334 50.346667-35.84 84.48-95.573333 84.48-163.84zM383.146667 600.746667l32.426666 55.466666H145.066667l32.426666-55.466666h20.48c24.746667 11.946667 52.906667 17.92 82.773334 17.92s57.173333-6.826667 82.773333-17.92h19.626667z m-23.893334-17.066667c-17.92 8.533333-38.4 14.506667-59.733333 17.066667-5.973333 0.853333-12.8 0.853333-18.773333 0.853333s-12.8 0-18.773334-0.853333c-21.333333-2.56-40.96-8.533333-59.733333-17.066667-60.586667-29.013333-102.4-91.306667-102.4-162.986667 0-99.84 81.066667-180.906667 180.906667-180.906666s180.906667 81.066667 180.906666 180.906666c0 71.68-41.813333 133.973333-102.4 162.986667z" p-id="4774"></path><path d="M280.746667 290.986667c-71.68 0-129.706667 58.026667-129.706667 129.706666s58.026667 129.706667 129.706667 129.706667 129.706667-58.026667 129.706666-129.706667-58.026667-129.706667-129.706666-129.706666z m0 242.346666c-62.293333 0-112.64-50.346667-112.64-112.64s50.346667-112.64 112.64-112.64S393.386667 358.4 393.386667 420.693333s-51.2 112.64-112.64 112.64z" p-id="4775"></path><path d="M263.68 384h33.28c5.12 0 8.533333-3.413333 8.533333-8.533333s-3.413333-8.533333-8.533333-8.533334h-33.28c-5.12 0-8.533333 3.413333-8.533333 8.533334s4.266667 8.533333 8.533333 8.533333zM334.506667 449.706667l-51.2-20.48c-1.706667-0.853333-4.266667-0.853333-6.826667 0l-51.2 20.48c-3.413333 1.706667-5.12 6.826667-3.413333 11.093333s6.826667 6.826667 11.093333 5.12l47.786667-19.626667 47.786666 19.626667c0.853333 0 1.706667 0.853333 3.413334 0.853333 3.413333 0 6.826667-1.706667 7.68-5.12 1.706667-5.12 0-10.24-5.12-11.946666z" p-id="4776"></path><path d="M1015.466667 192.853333c0-33.28-26.453333-59.733333-59.733334-59.733333L68.266667 132.266667c-16.213333 0-30.72 5.973333-41.813334 17.92-11.946667 11.093333-17.92 25.6-17.92 41.813333v528.213333c0 33.28 26.453333 59.733333 59.733334 59.733334h437.76v-5.973334-11.093333H68.266667c-23.893333 0-42.666667-18.773333-42.666667-42.666667V192c0-11.093333 4.266667-22.186667 12.8-29.866667 7.68-8.533333 18.773333-12.8 29.866667-12.8l887.466666 0.853334c23.893333 0 42.666667 18.773333 42.666667 42.666666v528.213334c0 11.093333-4.266667 22.186667-12.8 29.866666-7.68 7.68-18.773333 12.8-29.866667 12.8h-8.533333c-5.973333-116.906667-102.4-209.92-220.16-209.92-122.026667 0-221.013333 98.986667-221.013333 221.013334s98.986667 221.013333 221.013333 221.013333c119.466667 0 216.746667-95.573333 220.16-214.186667h8.533333c16.213333 0 30.72-5.973333 41.813334-17.92 11.093333-11.093333 17.92-26.453333 17.92-41.813333v-529.066667z m-289.28 785.066667c-112.64 0-203.946667-91.306667-203.946667-203.946667S614.4 570.88 726.186667 570.88c112.64 0 203.946667 91.306667 203.946666 203.946667s-91.306667 203.093333-203.946666 203.093333z" p-id="4777"></path><path d="M732.16 644.266667c-1.706667-1.706667-3.413333-2.56-5.973333-2.56s-4.266667 0.853333-5.973334 2.56L619.52 744.96c-3.413333 3.413333-3.413333 8.533333 0 11.946667l37.546667 37.546666c3.413333 3.413333 8.533333 3.413333 11.946666 0l21.333334-21.333333v113.493333c0 5.12 3.413333 8.533333 8.533333 8.533334h53.76c5.12 0 8.533333-3.413333 8.533333-8.533334V773.12l21.333334 21.333333c3.413333 3.413333 8.533333 3.413333 11.946666 0l37.546667-37.546666c1.706667-1.706667 2.56-3.413333 2.56-5.973334s-0.853333-4.266667-2.56-5.973333L732.16 644.266667zM789.333333 776.533333L759.466667 746.666667c-2.56-2.56-5.973333-3.413333-9.386667-1.706667-3.413333 1.706667-5.12 4.266667-5.12 7.68v125.44H708.266667V752.64c0-3.413333-1.706667-6.826667-5.12-7.68-3.413333-1.706667-6.826667-0.853333-9.386667 1.706667L663.893333 776.533333l-25.6-25.6 88.746667-88.746666L814.933333 750.933333l-25.6 25.6z" p-id="4778"></path></svg>