<?xml version="1.0" standalone="no"?><!DOCTYPE svg PUBLIC "-//W3C//DTD SVG 1.1//EN" "http://www.w3.org/Graphics/SVG/1.1/DTD/svg11.dtd"><svg t="1611281814400" class="icon" viewBox="0 0 1024 1024" version="1.1" xmlns="http://www.w3.org/2000/svg" p-id="2534" xmlns:xlink="http://www.w3.org/1999/xlink" width="64" height="64"><defs><style type="text/css"></style></defs><path d="M802.730667 583.936H178.602667A49.706667 49.706667 0 0 1 128 533.333333c0-28.672 21.930667-50.602667 50.602667-50.602666h624.128c28.672 0 50.602667 21.930667 50.602666 50.602666 0 28.672-21.930667 50.602667-50.602666 50.602667z" fill="#172B4D" p-id="2535"></path><path d="M490.666667 896a49.706667 49.706667 0 0 1-50.602667-50.602667V221.269333c0-28.672 21.930667-50.602667 50.602667-50.602666 28.672 0 50.602667 21.930667 50.602666 50.602666v624.128c0 28.672-21.930667 50.602667-50.602666 50.602667z" fill="#172B4D" p-id="2536"></path></svg>